<?xml version="1.0" encoding="UTF-8" standalone="no"?>
<!-- Generator: Adobe Illustrator 16.0.0, SVG Export Plug-In . SVG Version: 6.00 Build 0)  -->

<svg
   xmlns:dc="http://purl.org/dc/elements/1.1/"
   xmlns:cc="http://creativecommons.org/ns#"
   xmlns:rdf="http://www.w3.org/1999/02/22-rdf-syntax-ns#"
   xmlns:svg="http://www.w3.org/2000/svg"
   xmlns="http://www.w3.org/2000/svg"
   xmlns:sodipodi="http://sodipodi.sourceforge.net/DTD/sodipodi-0.dtd"
   xmlns:inkscape="http://www.inkscape.org/namespaces/inkscape"
   version="1.1"
   id="Capa_1"
   x="0px"
   y="0px"
   width="24"
   height="24"
   viewBox="0 0 23.999999 23.999999"
   xml:space="preserve"
   inkscape:version="0.48.5 r10040"
   sodipodi:docname="icon.svg"><metadata
   id="metadata57"><rdf:RDF><cc:Work
       rdf:about=""><dc:format>image/svg+xml</dc:format><dc:type
         rdf:resource="http://purl.org/dc/dcmitype/StillImage" /><dc:title></dc:title></cc:Work></rdf:RDF></metadata><defs
   id="defs55" /><sodipodi:namedview
   pagecolor="#ffffff"
   bordercolor="#666666"
   borderopacity="1"
   objecttolerance="10"
   gridtolerance="10"
   guidetolerance="10"
   inkscape:pageopacity="0"
   inkscape:pageshadow="2"
   inkscape:window-width="1366"
   inkscape:window-height="706"
   id="namedview53"
   showgrid="false"
   inkscape:zoom="6.4853272"
   inkscape:cx="7.4618098"
   inkscape:cy="28.036776"
   inkscape:window-x="-8"
   inkscape:window-y="-8"
   inkscape:window-maximized="1"
   inkscape:current-layer="Capa_1" />
<g
   id="g3"
   transform="matrix(0.46078396,0,0,0.45768506,0.22864917,0.2919584)">
	<g
   id="g5">
		
		
		<path
   d="m 8.832,11.011 8.335,2.675 c 0.059,0.084 0.153,0.137 0.256,0.137 0.032,0 0.065,-0.005 0.098,-0.017 l 0.011,-0.003 7.917,2.541 c 0.03,0.01 0.063,0.015 0.095,0.015 0.031,0 0.063,-0.005 0.094,-0.015 l 7.6,-2.438 c 0.007,0 0.013,0.003 0.02,0.003 0.071,0 0.141,-0.026 0.194,-0.071 L 50.16,8.475 C 50.289,8.434 50.376,8.314 50.376,8.18 50.376,8.045 50.289,7.925 50.16,7.884 L 25.636,0.015 c -0.061,-0.02 -0.127,-0.02 -0.188,0 L 0.926,7.883 C 0.798,7.924 0.71,8.044 0.71,8.179 c 0,0.135 0.088,0.254 0.216,0.295 l 7.906,2.537 c -0.001,0 -0.001,0 0,0 z m 8.695,2.138 -7.605,-2.44 7.012,-2.352 7.378,2.518 -6.785,2.274 z M 17.903,8.032 25.437,5.507 32.899,7.995 25.28,10.55 17.903,8.032 z m 7.64,7.69 -7.018,-2.252 6.755,-2.264 6.95,2.371 -6.687,2.145 z m 7.677,-2.464 -6.971,-2.378 7.631,-2.559 7.221,2.407 -7.881,2.53 z m 8.293,-7.497 7.534,2.418 -6.978,2.239 C 42.044,10.398 42.016,10.38 41.985,10.37 L 34.858,7.994 41.504,5.765 c 0.003,0 0.006,-0.003 0.009,-0.004 z m -0.996,-0.32 -6.638,2.226 -7.463,-2.488 6.496,-2.178 7.605,2.44 z M 25.543,0.636 31.914,2.68 25.436,4.852 19.045,2.721 25.543,0.636 z m -7.49,2.403 c 0.009,0.004 0.017,0.012 0.026,0.016 l 6.378,2.126 -7.523,2.522 -6.501,-2.219 7.62,-2.445 z M 9.479,5.791 c 0.029,0.024 0.063,0.046 0.103,0.06 L 15.965,8.028 8.924,10.389 2.037,8.18 9.479,5.791 z"
   id="path11"
   inkscape:connector-curvature="0" />
		<path
   d="M 50.54,42.987 26.019,34.981 c -0.063,-0.021 -0.13,-0.021 -0.193,0 L 1.304,42.987 c -0.128,0.042 -0.214,0.162 -0.214,0.296 0,0.136 0.088,0.255 0.216,0.296 l 7.693,2.469 c 0.023,0.011 0.047,0.019 0.072,0.022 l 16.756,5.377 c 0.03,0.011 0.063,0.016 0.094,0.016 0.032,0 0.064,-0.005 0.095,-0.016 l 24.521,-7.868 c 0.128,-0.041 0.215,-0.16 0.216,-0.296 0,-0.135 -0.086,-0.254 -0.213,-0.296 z m -17.286,-4.989 7.562,2.469 -6.733,2.284 -7.485,-2.511 6.615,-2.218 c 0.015,-0.005 0.026,-0.017 0.041,-0.024 z m -0.144,5.081 -7.354,2.494 -7.555,-2.519 7.419,-2.487 7.49,2.512 z m -7.189,-7.475 6.357,2.076 -6.659,2.233 -6.363,-2.134 6.665,-2.175 z m -7.65,2.498 c 0.004,0.002 0.008,0.005 0.012,0.006 l 6.359,2.132 -7.421,2.488 -6.493,-2.164 7.543,-2.462 z M 2.409,43.28 9.75,40.884 c 0.014,0.007 0.023,0.017 0.037,0.021 l 6.455,2.152 -7.105,2.382 -6.728,-2.159 z m 7.725,2.48 7.088,-2.376 7.561,2.521 -6.904,2.342 -7.745,-2.487 z m 15.787,5.065 -7.049,-2.262 6.885,-2.335 7.105,2.37 -6.941,2.227 z m 7.889,-2.53 C 33.777,48.262 33.74,48.234 33.693,48.22 l -6.961,-2.321 7.352,-2.494 7.316,2.454 -7.59,2.436 z m 8.589,-2.756 -7.346,-2.464 6.655,-2.257 c 0.024,-0.008 0.045,-0.024 0.065,-0.039 l 7.66,2.5 -7.034,2.26 z"
   id="path13"
   inkscape:connector-curvature="0" />
		
		
		
		
	<text
   xml:space="preserve"
   style="font-size:37.26821136px;font-style:normal;font-weight:normal;line-height:125%;letter-spacing:0px;word-spacing:0px;fill:#000000;fill-opacity:1;stroke:none;font-family:Sans"
   x="12.164527"
   y="33.33588"
   id="text3082"
   sodipodi:linespacing="125%"
   transform="scale(0.98091213,1.0194593)"><tspan
     sodipodi:role="line"
     id="tspan3084"
     x="12.164527"
     y="33.33588"
     style="font-style:normal;font-variant:normal;font-weight:normal;font-stretch:normal;font-family:MoolBoran;-inkscape-font-specification:MoolBoran">3D</tspan></text>
</g>
</g>
<g
   id="g23"
   transform="translate(0,-27.463001)">
</g>
<g
   id="g25"
   transform="translate(0,-27.463001)">
</g>
<g
   id="g27"
   transform="translate(0,-27.463001)">
</g>
<g
   id="g29"
   transform="translate(0,-27.463001)">
</g>
<g
   id="g31"
   transform="translate(0,-27.463001)">
</g>
<g
   id="g33"
   transform="translate(0,-27.463001)">
</g>
<g
   id="g35"
   transform="translate(0,-27.463001)">
</g>
<g
   id="g37"
   transform="translate(0,-27.463001)">
</g>
<g
   id="g39"
   transform="translate(0,-27.463001)">
</g>
<g
   id="g41"
   transform="translate(0,-27.463001)">
</g>
<g
   id="g43"
   transform="translate(0,-27.463001)">
</g>
<g
   id="g45"
   transform="translate(0,-27.463001)">
</g>
<g
   id="g47"
   transform="translate(0,-27.463001)">
</g>
<g
   id="g49"
   transform="translate(0,-27.463001)">
</g>
<g
   id="g51"
   transform="translate(0,-27.463001)">
</g>
<path
   style="fill:#ff0000;stroke:#000000;stroke-width:0.07709711;stroke-miterlimit:4;stroke-opacity:1;stroke-dasharray:none"
   d="M 10.268145,4.4959392 C 9.3965059,4.1926557 8.8969637,3.9481164 9.0345909,3.8920815 9.1618011,3.8402879 9.870385,3.5946756 10.609222,3.3462763 l 1.343339,-0.4516349 1.470705,0.4844404 c 0.808888,0.2664423 1.470705,0.5239455 1.470705,0.5722293 0,0.08101 -2.935995,1.0936944 -3.091799,1.0664243 -0.03805,-0.00666 -0.728362,-0.2414682 -1.534027,-0.5217962 z"
   id="path3122"
   inkscape:connector-curvature="0" /><path
   style="fill:#ff0000;stroke:#000000;stroke-width:0.07709711;stroke-miterlimit:4;stroke-opacity:1;stroke-dasharray:none"
   d="M 10.499436,1.9571586 9.2658822,1.5299416 10.65363,1.1032098 12.041378,0.67647811 13.352029,1.1032462 14.66268,1.5300143 13.359003,1.9692784 C 12.641981,2.2108737 11.982801,2.4031051 11.894158,2.3964591 11.805516,2.3898132 11.177891,2.192128 10.499436,1.9571586 z"
   id="path3124"
   inkscape:connector-curvature="0" /><path
   style="fill:#ff0000;stroke:#000000;stroke-width:0.07709711;stroke-miterlimit:4;stroke-opacity:1;stroke-dasharray:none"
   d="M 10.423816,6.9055882 C 9.7037711,6.6724028 9.1833656,6.4418304 9.2673598,6.3932048 9.3513539,6.3445793 9.9751757,6.1245725 10.65363,5.9043009 l 1.233554,-0.4004939 1.427579,0.50179 1.427579,0.50179 -1.282566,0.4176854 C 12.754364,7.1547993 12.07726,7.3397886 11.9551,7.3361595 11.832939,7.3325313 11.143862,7.1387733 10.423816,6.9055882 l 0,0 z"
   id="path3126"
   inkscape:connector-curvature="0" /><path
   style="fill:#ff0000;stroke:#000000;stroke-width:0.07709711;stroke-miterlimit:4;stroke-opacity:1;stroke-dasharray:none"
   d="M 2.8854936,4.4963919 1.4417976,4.0148954 3.0142564,3.5346958 4.5867154,3.0544963 5.7698421,3.4454285 C 6.4205618,3.6604413 7.0040694,3.8819149 7.0665257,3.9375922 7.1289819,3.9932694 6.5386316,4.2501131 5.7546359,4.508356 L 4.3291897,4.9778885 2.8854936,4.4963919 l 0,0 z"
   id="path3128"
   inkscape:connector-curvature="0" /><path
   style="fill:#ff0000;stroke:#000000;stroke-width:0.07709711;stroke-miterlimit:4;stroke-opacity:1;stroke-dasharray:none"
   d="m 18.170599,4.5111768 c -0.784463,-0.2592921 -1.426297,-0.513163 -1.426297,-0.5641575 0,-0.050995 0.60714,-0.2834537 1.3492,-0.5165759 l 1.349199,-0.4238585 1.541942,0.5277237 1.541943,0.5277237 -1.150838,0.346048 c -0.632961,0.1903265 -1.292141,0.3974581 -1.464845,0.4602924 -0.200964,0.073116 -0.827477,-0.055475 -1.740304,-0.3571959 z"
   id="path3130"
   inkscape:connector-curvature="0" /><path
   style="fill:#ff0000;stroke:#000000;stroke-width:0.07709711;stroke-miterlimit:4;stroke-opacity:1;stroke-dasharray:none"
   d="m 10.523644,18.003664 -1.2093458,-0.41691 1.3861298,-0.44298 1.38613,-0.44298 1.249512,0.361053 c 0.687232,0.198579 1.249513,0.403196 1.249513,0.454706 0,0.101075 -2.467881,0.936079 -2.707581,0.916106 -0.07976,-0.0066 -0.689218,-0.199694 -1.354358,-0.428995 z"
   id="path3132"
   inkscape:connector-curvature="0" /><path
   style="fill:#ff0000;stroke:#000000;stroke-width:0.07709711;stroke-miterlimit:4;stroke-opacity:1;stroke-dasharray:none"
   d="M 10.499436,20.536292 C 9.5706518,20.231836 9.0494675,19.991543 9.1887851,19.932016 9.3159954,19.877662 10.009869,19.635521 10.730727,19.393925 l 1.310651,-0.439265 1.310651,0.439725 c 0.720858,0.241849 1.414732,0.481863 1.541942,0.533363 0.190941,0.0773 -1.355553,0.698633 -2.594495,1.042384 -0.141954,0.03939 -0.951972,-0.155842 -1.80004,-0.43384 z"
   id="path3134"
   inkscape:connector-curvature="0" /><path
   style="fill:#ff0000;stroke:#000000;stroke-width:0.07709711;stroke-miterlimit:4;stroke-opacity:1;stroke-dasharray:none"
   d="m 10.472438,22.931176 -1.2605523,-0.417762 1.4574243,-0.480065 1.457424,-0.480066 1.469568,0.492686 1.469569,0.492687 -1.290137,0.42015 c -1.552109,0.505466 -1.698425,0.504242 -3.303296,-0.02763 z"
   id="path3136"
   inkscape:connector-curvature="0" /><path
   style="fill:#ff0000;stroke:#000000;stroke-width:0.07709711;stroke-miterlimit:4;stroke-opacity:1;stroke-dasharray:none"
   d="M 3.0981132,20.586083 C 2.5892723,20.423847 2.0688668,20.249457 1.9416565,20.198549 1.8065025,20.144462 2.3334616,19.89407 3.2094373,19.596146 l 1.4990722,-0.509842 1.2378753,0.405816 c 0.6808315,0.2232 1.2378754,0.446177 1.2378754,0.495506 0,0.130418 -2.5083698,0.927013 -2.8617748,0.908827 -0.1645638,-0.0085 -0.7155312,-0.148135 -1.2243722,-0.31037 z"
   id="path3138"
   inkscape:connector-curvature="0" /><path
   style="fill:#ff2a2a;stroke:#000000;stroke-width:0.07709711000000000;stroke-miterlimit:4;stroke-opacity:1;stroke-dasharray:none"
   d="m 18.324793,20.557279 c -0.784463,-0.264739 -1.426297,-0.523066 -1.426297,-0.57406 0,-0.05099 0.60714,-0.283454 1.3492,-0.516576 l 1.349199,-0.423859 1.540759,0.523941 1.540758,0.523941 -1.309467,0.433205 c -0.720207,0.238263 -1.378854,0.451553 -1.463661,0.473978 -0.08481,0.02243 -0.796028,-0.175832 -1.580491,-0.44057 z"
   id="path3140"
   inkscape:connector-curvature="0" /><path
   style="fill:#ff2a2a;stroke:#000000;stroke-width:0.07709711;stroke-miterlimit:4;stroke-opacity:1;stroke-dasharray:none"
   d="m 6.8100342,21.7681 c -0.8418755,-0.272762 -1.4663621,-0.532995 -1.387748,-0.578295 0.078614,-0.0453 0.7275076,-0.274884 1.4419857,-0.510186 l 1.2990512,-0.427821 1.6029101,0.518064 1.6029098,0.518065 -1.256115,0.422074 C 9.422165,21.942142 8.7407692,22.161765 8.598815,22.198053 8.4568611,22.234341 7.6519097,22.040863 6.8100342,21.7681 l 0,0 z"
   id="path3142"
   inkscape:connector-curvature="0" /><path
   style="fill:#ff2a2a;stroke:#000000;stroke-width:0.07709711;stroke-miterlimit:4;stroke-opacity:1;stroke-dasharray:none"
   d="m 14.304687,21.782543 -1.437353,-0.492837 1.514834,-0.522747 1.514834,-0.522746 1.540288,0.513147 1.540289,0.513148 -1.534766,0.514545 c -0.844122,0.282999 -1.572118,0.509096 -1.61777,0.502436 -0.04565,-0.0067 -0.729812,-0.233886 -1.520356,-0.504946 l 0,0 z"
   id="path3144"
   inkscape:connector-curvature="0" /><path
   style="fill:#ff2a2a;stroke:#000000;stroke-width:0.07709711;stroke-miterlimit:4;stroke-opacity:1;stroke-dasharray:none"
   d="M 6.8202476,5.7529792 C 6.0027726,5.4950863 5.3339295,5.2399319 5.3339295,5.1859694 c 0,-0.053962 0.6133515,-0.2941287 1.3630032,-0.5337026 l 1.3630034,-0.435589 1.57413,0.52471 1.5741299,0.52471 -1.4508152,0.4778888 -1.4508153,0.4778889 -1.4863179,-0.4688963 0,0 z"
   id="path3146"
   inkscape:connector-curvature="0" /><path
   style="fill:#ff2a2a;stroke:#000000;stroke-width:0.07709711000000000;stroke-miterlimit:4;stroke-opacity:1;stroke-dasharray:none"
   d="M 13.99506,5.7459304 12.556469,5.2526806 14.187808,4.725428 15.819147,4.1981753 16.93705,4.5568285 c 2.102121,0.6744166 2.084291,0.5964548 0.269835,1.1798152 -0.890472,0.2862929 -1.653733,0.5164836 -1.696137,0.5115346 -0.0424,-0.00495 -0.724463,-0.2309604 -1.515688,-0.5022479 z"
   id="path3148"
   inkscape:connector-curvature="0" /><path
   style="fill:#ff8080;stroke:#000000;stroke-width:0.07709711000000000;stroke-miterlimit:4;stroke-opacity:1;stroke-dasharray:none"
   d="M 2.9744834,4.4366934 1.7714941,4.0219036 3.2095697,3.5898698 4.6476454,3.157836 5.5690157,3.4961055 C 6.0757695,3.6821536 6.5438123,3.8827014 6.6091108,3.9417671 6.7093073,4.0323997 4.4815902,4.9062519 4.2545699,4.8653677 4.2121665,4.8577313 3.6361276,4.6648278 2.9744834,4.4366934 z"
   id="path3150"
   inkscape:connector-curvature="0" /><path
   style="fill:#ff8080;stroke:#000000;stroke-width:0.07709711;stroke-miterlimit:4;stroke-opacity:1;stroke-dasharray:none"
   d="M 10.458644,4.4516049 C 9.8425614,4.2293402 9.3915433,3.9976176 9.456382,3.9366657 9.5212208,3.8757138 10.110066,3.6374234 10.764927,3.4071314 l 1.190655,-0.4187127 1.237904,0.4398392 c 0.680846,0.2419116 1.237903,0.4808408 1.237903,0.5309538 0,0.1002158 -2.450826,0.9240851 -2.698399,0.9070935 -0.08481,-0.00582 -0.658262,-0.1924356 -1.274346,-0.4147003 z"
   id="path3152"
   inkscape:connector-curvature="0" /><path
   style="fill:#ff8080;stroke:#000000;stroke-width:0.07709711;stroke-miterlimit:4;stroke-opacity:1;stroke-dasharray:none"
   d="M 18.170599,4.3792396 C 17.640556,4.2046963 17.206885,4.014345 17.206885,3.9562366 c 0,-0.058108 0.510326,-0.2656977 1.134057,-0.4613096 l 1.134057,-0.3556582 1.255954,0.4182708 c 0.690774,0.2300489 1.255953,0.4408962 1.255953,0.4685494 0,0.1303326 -1.965221,0.6939155 -2.381402,0.6829344 -0.259155,-0.00684 -0.904863,-0.1552405 -1.434905,-0.3297838 z"
   id="path3154"
   inkscape:connector-curvature="0" /><path
   style="fill:#ff8080;stroke:#000000;stroke-width:0.07709711;stroke-miterlimit:4;stroke-opacity:1;stroke-dasharray:none"
   d="m 18.974045,20.600146 c -0.5055,-0.144536 -1.09256,-0.335094 -1.304577,-0.423462 l -0.385486,-0.16067 0.568403,-0.24392 c 1.388685,-0.59593 1.801287,-0.614244 3.177972,-0.14106 l 1.279267,0.4397 -1.208243,0.396102 c -1.199033,0.393083 -1.215249,0.394099 -2.127336,0.13331 l 0,0 z"
   id="path3156"
   inkscape:connector-curvature="0" /><path
   style="fill:#ff8080;stroke:#000000;stroke-width:0.07709711;stroke-miterlimit:4;stroke-opacity:1;stroke-dasharray:none"
   d="m 11.887184,20.794719 c -0.61624,-0.113268 -2.2358162,-0.68169 -2.2358162,-0.784703 0,-0.05815 0.5403582,-0.297714 1.2007952,-0.532374 l 1.200795,-0.426654 1.189215,0.419227 c 0.654069,0.230575 1.189216,0.46953 1.189216,0.531011 0,0.172514 -2.196175,0.857463 -2.544205,0.793493 z"
   id="path3158"
   inkscape:connector-curvature="0" /><path
   style="fill:#ff8080;stroke:#000000;stroke-width:0.07709711;stroke-miterlimit:4;stroke-opacity:1;stroke-dasharray:none"
   d="M 3.3653601,20.531551 C 2.1015328,20.136845 2.1013038,20.141739 3.4065017,19.652738 l 1.2335538,-0.462158 1.040811,0.345055 c 0.5724461,0.18978 1.040811,0.393936 1.040811,0.453679 0,0.140001 -1.994945,0.771577 -2.3943609,0.758026 -0.1672209,-0.0057 -0.6001014,-0.102778 -0.9619565,-0.215789 z"
   id="path3160"
   inkscape:connector-curvature="0" /><path
   style="fill:#ffd5d5;stroke:#000000;stroke-width:0.07709711000000000;stroke-miterlimit:4;stroke-opacity:1;stroke-dasharray:none"
   d="m 6.5741163,19.257149 -1.1498236,-0.3968 1.6271356,-0.513586 1.6271357,-0.513586 1.2943808,0.434932 1.2943812,0.434932 -1.463686,0.487627 c -0.8050271,0.268196 -1.6022889,0.48215 -1.7716929,0.475455 -0.1694039,-0.0067 -0.8254277,-0.190734 -1.4578308,-0.408974 z"
   id="path3162"
   inkscape:connector-curvature="0" /><path
   style="fill:#ffaaaa;stroke:#000000;stroke-width:0.07709711000000000;stroke-miterlimit:4;stroke-opacity:1;stroke-dasharray:none"
   d="m 14.200097,19.177841 -1.387748,-0.476109 1.375852,-0.458617 1.375851,-0.458617 1.603207,0.518161 1.603207,0.51816 -1.275948,0.428738 c -0.701771,0.235807 -1.417861,0.423261 -1.59131,0.416566 -0.173449,-0.0067 -0.939849,-0.226422 -1.703111,-0.488282 z"
   id="path3164"
   inkscape:connector-curvature="0" /><path
   style="fill:#ffaaaa;stroke:#000000;stroke-width:0.07709711;stroke-miterlimit:4;stroke-opacity:1;stroke-dasharray:none"
   d="M 6.9236513,19.239145 C 6.4834926,19.099047 6.0838747,18.943305 6.0356117,18.893052 5.9873486,18.842799 6.5607922,18.617735 7.309931,18.392911 l 1.3620702,-0.408772 1.0679117,0.364044 1.0679111,0.364043 -1.3186075,0.405938 C 7.9837648,19.581622 7.9975982,19.58097 6.9236513,19.239145 z"
   id="path3166"
   inkscape:connector-curvature="0" /><path
   style="fill:#ffaaaa;stroke:#000000;stroke-width:0.07709711;stroke-miterlimit:4;stroke-opacity:1;stroke-dasharray:none"
   d="m 14.045903,3.1416414 -1.387748,-0.4761085 1.375852,-0.4586171 1.375851,-0.4586171 1.603207,0.5181605 1.603207,0.5181604 -1.275948,0.4287383 c -0.701771,0.2358062 -1.417861,0.4232606 -1.59131,0.4165653 -0.17345,-0.0067 -0.939849,-0.226422 -1.703111,-0.4882818 z"
   id="path3168"
   inkscape:connector-curvature="0" /><path
   style="fill:#ffaaaa;stroke:#000000;stroke-width:0.07709711;stroke-miterlimit:4;stroke-opacity:1;stroke-dasharray:none"
   d="M 6.6689539,3.2611979 5.31182,2.7721967 6.9804626,2.274416 8.6491053,1.7766354 9.9567142,2.2212341 11.264323,2.6658328 9.6452054,3.208016 8.0260879,3.7501993 6.6689539,3.2611979 z"
   id="path3170"
   inkscape:connector-curvature="0" /><path
   style="fill:#ffd5d5;stroke:#000000;stroke-width:0.07709711000000000;stroke-miterlimit:4;stroke-opacity:1;stroke-dasharray:none"
   d="m 10.653847,17.929631 -1.079143,-0.345375 1.260362,-0.358872 c 1.119474,-0.318756 1.346428,-0.338225 2.030298,-0.174167 0.423465,0.101587 0.8879,0.270961 1.032077,0.376387 0.226837,0.165867 0.118921,0.236883 -0.801311,0.527313 -1.269827,0.400763 -1.105761,0.402462 -2.442283,-0.02529 l 0,0 z"
   id="path3172"
   inkscape:connector-curvature="0" /><path
   style="fill:#ffd5d5;stroke:#000000;stroke-width:0.07709711;stroke-miterlimit:4;stroke-opacity:1;stroke-dasharray:none"
   d=""
   id="path3174"
   inkscape:connector-curvature="0" /><path
   style="fill:#ffd5d5;stroke:#000000;stroke-width:0.07709711;stroke-miterlimit:4;stroke-opacity:1;stroke-dasharray:none"
   d="M 10.66476,1.896838 9.5965307,1.5548695 10.76325,1.1889681 c 1.164383,-0.36516888 1.168772,-0.3653457 2.192195,-0.088318 0.564012,0.1526708 1.059369,0.332423 1.100793,0.3994491 0.06779,0.1096815 -1.851943,0.7653298 -2.185678,0.7464782 -0.07566,-0.00427 -0.618273,-0.1616567 -1.2058,-0.3497394 z"
   id="path3176"
   inkscape:connector-curvature="0" /></svg>